<svg width="128" height="128" viewBox="0 0 128 128" fill="none" xmlns="http://www.w3.org/2000/svg">
<g filter="url(#filter0_b_1_3)">
<rect width="128" height="128" fill="white"/>
<rect x="12.5" y="13.5" width="104" height="102" fill="black" stroke="black"/>
<path d="M29.28 81.2C28.2933 81.2 27.5867 80.9867 27.16 80.56C26.7333 80.1067 26.52 79.2667 26.52 78.04C26.52 77.2133 26.6 76.16 26.76 74.88C26.9467 73.5733 27.24 71.7867 27.64 69.52C28.3333 65.3333 28.88 61.7067 29.28 58.64C29.52 56.72 29.64 55.12 29.64 53.84C29.64 52.64 29.2 52.04 28.32 52.04C27.6267 52.04 26.7867 52.4 25.8 53.12C24.84 53.8133 23.7733 54.9333 22.6 56.48C22.2267 56.9867 21.8133 57.24 21.36 57.24C20.9867 57.24 20.6533 57.0667 20.36 56.72C20.0933 56.3467 19.96 55.9333 19.96 55.48C19.96 55.0533 20.04 54.6267 20.2 54.2C20.3867 53.7467 20.68 53.24 21.08 52.68C22.36 50.8933 23.7867 49.52 25.36 48.56C26.9333 47.5733 28.5067 47.08 30.08 47.08C31.5467 47.08 32.6667 47.5467 33.44 48.48C34.24 49.4133 34.64 50.7733 34.64 52.56C34.64 53.28 34.5733 54.1333 34.44 55.12C34.3067 56.08 34.1867 56.8667 34.08 57.48C33.9733 58.0933 33.8933 58.52 33.84 58.76C35.36 54.4133 37.0667 51.3867 38.96 49.68C40.8533 47.9467 42.9333 47.08 45.2 47.08C46.9333 47.08 48.2933 47.6933 49.28 48.92C50.2933 50.1467 50.8 51.88 50.8 54.12C50.8 55 50.68 56.0933 50.44 57.4C51.7733 53.72 53.3333 51.08 55.12 49.48C56.9067 47.88 58.96 47.08 61.28 47.08C63.1467 47.08 64.5733 47.68 65.56 48.88C66.5733 50.08 67.08 51.76 67.08 53.92C67.08 55.0933 66.9067 56.52 66.56 58.2L64.12 69.64C63.8533 70.9733 63.72 72.12 63.72 73.08C63.72 74.2 63.9733 75.04 64.48 75.6C65.0133 76.16 65.7467 76.44 66.68 76.44C67.56 76.44 68.4133 76.1467 69.24 75.56C70.0933 74.9733 71.0933 74 72.24 72.64C72.56 72.2667 72.92 72.08 73.32 72.08C73.6667 72.08 73.9333 72.24 74.12 72.56C74.3333 72.88 74.44 73.32 74.44 73.88C74.44 74.92 74.1867 75.7467 73.68 76.36C72.2933 78.04 70.92 79.2667 69.56 80.04C68.2 80.8133 66.7733 81.2 65.28 81.2C63.0133 81.2 61.24 80.5333 59.96 79.2C58.68 77.84 58.04 76.0267 58.04 73.76C58.04 72.1867 58.36 69.9067 59 66.92L60.6 59.6C60.6533 59.36 60.7467 58.9333 60.88 58.32C61.0133 57.7067 61.12 57.1333 61.2 56.6C61.28 56.04 61.32 55.4933 61.32 54.96C61.32 54.0267 61.1333 53.3333 60.76 52.88C60.4133 52.4 59.9067 52.16 59.24 52.16C57.9867 52.16 56.6667 52.9733 55.28 54.6C53.92 56.2 52.6133 58.8667 51.36 62.6C50.1333 66.3333 49.1333 71.1867 48.36 77.16C48.1733 78.76 47.84 79.84 47.36 80.4C46.9067 80.9333 46.16 81.2 45.12 81.2C44.2133 81.2 43.5467 80.9867 43.12 80.56C42.72 80.1333 42.52 79.3333 42.52 78.16C42.52 77.0667 42.6667 75.64 42.96 73.88C43.2533 72.0933 43.6267 70 44.08 67.6C45.3067 61.1467 45.92 56.9867 45.92 55.12C45.92 54.1067 45.72 53.36 45.32 52.88C44.9467 52.4 44.3733 52.16 43.6 52.16C42.2933 52.16 40.9467 52.9067 39.56 54.4C38.1733 55.8667 36.8133 58.4933 35.48 62.28C34.1733 66.04 33.08 71.1333 32.2 77.56C32.0133 78.92 31.7333 79.8667 31.36 80.4C31.0133 80.9333 30.32 81.2 29.28 81.2ZM82.3769 81.32C78.8302 81.32 75.9902 80.6533 73.8569 79.32C71.7235 77.96 70.6569 75.8933 70.6569 73.12C70.6569 71.6533 70.9102 70.5333 71.4169 69.76C71.9235 68.9867 72.6702 68.6 73.6569 68.6C74.3769 68.6 74.9635 68.7867 75.4169 69.16C75.8702 69.5333 76.0969 70.0133 76.0969 70.6C76.0969 71.1333 76.0569 71.6 75.9769 72C75.9769 72.1067 75.9502 72.2933 75.8969 72.56C75.8702 72.8267 75.8569 73.1067 75.8569 73.4C75.8569 74.6 76.4569 75.4933 77.6569 76.08C78.8835 76.6667 80.5902 76.96 82.7769 76.96C85.0435 76.96 86.8169 76.56 88.0969 75.76C89.3769 74.9333 90.0169 73.7867 90.0169 72.32C90.0169 71.4133 89.7235 70.64 89.1369 70C88.5502 69.3333 87.8169 68.7867 86.9369 68.36C86.0569 67.9067 84.8169 67.36 83.2169 66.72C81.1635 65.92 79.4835 65.16 78.1769 64.44C76.8969 63.72 75.7902 62.7467 74.8569 61.52C73.9502 60.2667 73.4969 58.72 73.4969 56.88C73.4969 54.96 74.0035 53.2533 75.0169 51.76C76.0569 50.2667 77.5369 49.1067 79.4569 48.28C81.4035 47.4533 83.6835 47.04 86.2969 47.04C88.2435 47.04 90.0302 47.3333 91.6569 47.92C93.2835 48.48 94.5769 49.3467 95.5369 50.52C96.5235 51.6933 97.0169 53.1333 97.0169 54.84C97.0169 56.52 96.7635 57.7867 96.2569 58.64C95.7502 59.4933 95.0035 59.92 94.0169 59.92C93.3235 59.92 92.7369 59.7067 92.2569 59.28C91.8035 58.8533 91.5769 58.3467 91.5769 57.76C91.5769 57.2533 91.6169 56.7867 91.6969 56.36C91.7769 55.56 91.8169 55.0533 91.8169 54.84C91.8169 53.72 91.2702 52.8667 90.1769 52.28C89.0835 51.6933 87.7235 51.4 86.0969 51.4C83.8035 51.4 82.0435 51.8267 80.8169 52.68C79.6169 53.5067 79.0169 54.68 79.0169 56.2C79.0169 57.2133 79.3235 58.08 79.9369 58.8C80.5769 59.52 81.3635 60.12 82.2969 60.6C83.2302 61.08 84.5369 61.6533 86.2169 62.32C88.2435 63.1467 89.8702 63.8933 91.0969 64.56C92.3235 65.2267 93.3635 66.1333 94.2169 67.28C95.0969 68.4267 95.5369 69.84 95.5369 71.52C95.5369 74.6667 94.3369 77.0933 91.9369 78.8C89.5635 80.48 86.3769 81.32 82.3769 81.32ZM102.493 81.2C101.319 81.2 100.426 80.88 99.8125 80.24C99.2258 79.6 98.9325 78.76 98.9325 77.72C98.9325 76.52 99.2658 75.56 99.9325 74.84C100.626 74.12 101.586 73.76 102.812 73.76C103.986 73.76 104.866 74.0533 105.453 74.64C106.066 75.2 106.373 76.04 106.373 77.16C106.373 78.3867 106.026 79.3733 105.333 80.12C104.639 80.84 103.693 81.2 102.493 81.2Z" fill="white"/>
</g>
<defs>
<filter id="filter0_b_1_3" x="-4" y="-4" width="136" height="136" filterUnits="userSpaceOnUse" color-interpolation-filters="sRGB">
<feFlood flood-opacity="0" result="BackgroundImageFix"/>
<feGaussianBlur in="BackgroundImage" stdDeviation="2"/>
<feComposite in2="SourceAlpha" operator="in" result="effect1_backgroundBlur_1_3"/>
<feBlend mode="normal" in="SourceGraphic" in2="effect1_backgroundBlur_1_3" result="shape"/>
</filter>
</defs>
</svg>
