<svg width="128" height="130" viewBox="0 0 128 130" fill="none" xmlns="http://www.w3.org/2000/svg">
<g filter="url(#filter0_b_1_3)">
<rect width="128" height="130" fill="white"/>
<rect x="3.5" y="3.5" width="121" height="123" fill="black" stroke="black"/>
<path d="M19.6 86.25C18.3667 86.25 17.4833 85.9833 16.95 85.45C16.4167 84.8833 16.15 83.8333 16.15 82.3C16.15 81.2667 16.25 79.95 16.45 78.35C16.6833 76.7167 17.05 74.4833 17.55 71.65C18.4167 66.4167 19.1 61.8833 19.6 58.05C19.9 55.65 20.05 53.65 20.05 52.05C20.05 50.55 19.5 49.8 18.4 49.8C17.5333 49.8 16.4833 50.25 15.25 51.15C14.05 52.0167 12.7167 53.4167 11.25 55.35C10.7833 55.9833 10.2667 56.3 9.7 56.3C9.23333 56.3 8.81667 56.0833 8.45 55.65C8.11667 55.1833 7.95 54.6667 7.95 54.1C7.95 53.5667 8.05 53.0333 8.25 52.5C8.48333 51.9333 8.85 51.3 9.35 50.6C10.95 48.3667 12.7333 46.65 14.7 45.45C16.6667 44.2167 18.6333 43.6 20.6 43.6C22.4333 43.6 23.8333 44.1833 24.8 45.35C25.8 46.5167 26.3 48.2167 26.3 50.45C26.3 51.35 26.2167 52.4167 26.05 53.65C25.8833 54.85 25.7333 55.8333 25.6 56.6C25.4667 57.3667 25.3667 57.9 25.3 58.2C27.2 52.7667 29.3333 48.9833 31.7 46.85C34.0667 44.6833 36.6667 43.6 39.5 43.6C41.6667 43.6 43.3667 44.3667 44.6 45.9C45.8667 47.4333 46.5 49.6 46.5 52.4C46.5 53.5 46.35 54.8667 46.05 56.5C47.7167 51.9 49.6667 48.6 51.9 46.6C54.1333 44.6 56.7 43.6 59.6 43.6C61.9333 43.6 63.7167 44.35 64.95 45.85C66.2167 47.35 66.85 49.45 66.85 52.15C66.85 53.6167 66.6333 55.4 66.2 57.5L63.15 71.8C62.8167 73.4667 62.65 74.9 62.65 76.1C62.65 77.5 62.9667 78.55 63.6 79.25C64.2667 79.95 65.1833 80.3 66.35 80.3C67.45 80.3 68.5167 79.9333 69.55 79.2C70.6167 78.4667 71.8667 77.25 73.3 75.55C73.7 75.0833 74.15 74.85 74.65 74.85C75.0833 74.85 75.4167 75.05 75.65 75.45C75.9167 75.85 76.05 76.4 76.05 77.1C76.05 78.4 75.7333 79.4333 75.1 80.2C73.3667 82.3 71.65 83.8333 69.95 84.8C68.25 85.7667 66.4667 86.25 64.6 86.25C61.7667 86.25 59.55 85.4167 57.95 83.75C56.35 82.05 55.55 79.7833 55.55 76.95C55.55 74.9833 55.95 72.1333 56.75 68.4L58.75 59.25C58.8167 58.95 58.9333 58.4167 59.1 57.65C59.2667 56.8833 59.4 56.1667 59.5 55.5C59.6 54.8 59.65 54.1167 59.65 53.45C59.65 52.2833 59.4167 51.4167 58.95 50.85C58.5167 50.25 57.8833 49.95 57.05 49.95C55.4833 49.95 53.8333 50.9667 52.1 53C50.4 55 48.7667 58.3333 47.2 63C45.6667 67.6667 44.4167 73.7333 43.45 81.2C43.2167 83.2 42.8 84.55 42.2 85.25C41.6333 85.9167 40.7 86.25 39.4 86.25C38.2667 86.25 37.4333 85.9833 36.9 85.45C36.4 84.9167 36.15 83.9167 36.15 82.45C36.15 81.0833 36.3333 79.3 36.7 77.1C37.0667 74.8667 37.5333 72.25 38.1 69.25C39.6333 61.1833 40.4 55.9833 40.4 53.65C40.4 52.3833 40.15 51.45 39.65 50.85C39.1833 50.25 38.4667 49.95 37.5 49.95C35.8667 49.95 34.1833 50.8833 32.45 52.75C30.7167 54.5833 29.0167 57.8667 27.35 62.6C25.7167 67.3 24.35 73.6667 23.25 81.7C23.0167 83.4 22.6667 84.5833 22.2 85.25C21.7667 85.9167 20.9 86.25 19.6 86.25ZM85.9711 86.4C81.5378 86.4 77.9878 85.5667 75.3211 83.9C72.6544 82.2 71.3211 79.6167 71.3211 76.15C71.3211 74.3167 71.6378 72.9167 72.2711 71.95C72.9044 70.9833 73.8378 70.5 75.0711 70.5C75.9711 70.5 76.7044 70.7333 77.2711 71.2C77.8378 71.6667 78.1211 72.2667 78.1211 73C78.1211 73.6667 78.0711 74.25 77.9711 74.75C77.9711 74.8833 77.9378 75.1167 77.8711 75.45C77.8378 75.7833 77.8211 76.1333 77.8211 76.5C77.8211 78 78.5711 79.1167 80.0711 79.85C81.6044 80.5833 83.7378 80.95 86.4711 80.95C89.3044 80.95 91.5211 80.45 93.1211 79.45C94.7211 78.4167 95.5211 76.9833 95.5211 75.15C95.5211 74.0167 95.1544 73.05 94.4211 72.25C93.6878 71.4167 92.7711 70.7333 91.6711 70.2C90.5711 69.6333 89.0211 68.95 87.0211 68.15C84.4544 67.15 82.3544 66.2 80.7211 65.3C79.1211 64.4 77.7378 63.1833 76.5711 61.65C75.4378 60.0833 74.8711 58.15 74.8711 55.85C74.8711 53.45 75.5044 51.3167 76.7711 49.45C78.0711 47.5833 79.9211 46.1333 82.3211 45.1C84.7544 44.0667 87.6044 43.55 90.8711 43.55C93.3044 43.55 95.5378 43.9167 97.5711 44.65C99.6044 45.35 101.221 46.4333 102.421 47.9C103.654 49.3667 104.271 51.1667 104.271 53.3C104.271 55.4 103.954 56.9833 103.321 58.05C102.688 59.1167 101.754 59.65 100.521 59.65C99.6544 59.65 98.9211 59.3833 98.3211 58.85C97.7544 58.3167 97.4711 57.6833 97.4711 56.95C97.4711 56.3167 97.5211 55.7333 97.6211 55.2C97.7211 54.2 97.7711 53.5667 97.7711 53.3C97.7711 51.9 97.0878 50.8333 95.7211 50.1C94.3544 49.3667 92.6544 49 90.6211 49C87.7544 49 85.5544 49.5333 84.0211 50.6C82.5211 51.6333 81.7711 53.1 81.7711 55C81.7711 56.2667 82.1544 57.35 82.9211 58.25C83.7211 59.15 84.7044 59.9 85.8711 60.5C87.0378 61.1 88.6711 61.8167 90.7711 62.65C93.3044 63.6833 95.3378 64.6167 96.8711 65.45C98.4044 66.2833 99.7044 67.4167 100.771 68.85C101.871 70.2833 102.421 72.05 102.421 74.15C102.421 78.0833 100.921 81.1167 97.9211 83.25C94.9544 85.35 90.9711 86.4 85.9711 86.4ZM111.116 86.25C109.649 86.25 108.532 85.85 107.766 85.05C107.032 84.25 106.666 83.2 106.666 81.9C106.666 80.4 107.082 79.2 107.916 78.3C108.782 77.4 109.982 76.95 111.516 76.95C112.982 76.95 114.082 77.3167 114.816 78.05C115.582 78.75 115.966 79.8 115.966 81.2C115.966 82.7333 115.532 83.9667 114.666 84.9C113.799 85.8 112.616 86.25 111.116 86.25Z" fill="white"/>
</g>
<defs>
<filter id="filter0_b_1_3" x="-4" y="-4" width="136" height="138" filterUnits="userSpaceOnUse" color-interpolation-filters="sRGB">
<feFlood flood-opacity="0" result="BackgroundImageFix"/>
<feGaussianBlur in="BackgroundImage" stdDeviation="2"/>
<feComposite in2="SourceAlpha" operator="in" result="effect1_backgroundBlur_1_3"/>
<feBlend mode="normal" in="SourceGraphic" in2="effect1_backgroundBlur_1_3" result="shape"/>
</filter>
</defs>
</svg>
